<svg id="Layer_1" data-name="Layer 1" xmlns="http://www.w3.org/2000/svg" viewBox="0 0 696.32 198.26"><defs><style>.cls-1{fill:#154999;stroke:#fff;stroke-miterlimit:10;stroke-width:9px;}.cls-2{fill:#fff;}.cls-3{fill:#ffcc04;}</style></defs><path class="cls-1" d="M75.06,211.06H666.38L729,305.7l-62.63,94.63H75.06a32.37,32.37,0,0,1-32.47-32.27V243.33A32.37,32.37,0,0,1,75.06,211.06Z" transform="translate(-38.09 -206.56)"/><polygon class="cls-2" points="569.49 170.34 617.22 97.74 569.49 25.15 618.43 25.15 666.16 97.74 618.43 170.34 569.49 170.34"/><path class="cls-2" d="M97.26,273.35h16v21a46,46,0,0,1-7.35,1.79,47.91,47.91,0,0,1-7,.51q-9.17,0-14-5.39T80.1,275.79q0-9.8,5.61-15.28T101.25,255a30.09,30.09,0,0,1,12,2.49l-2.85,6.87a20.36,20.36,0,0,0-9.22-2.22,11.38,11.38,0,0,0-8.91,3.74q-3.34,3.73-3.35,10,0,6.6,2.7,10.06c1.8,2.32,4.41,3.48,7.85,3.48a27.78,27.78,0,0,0,5.45-.56v-8.44H97.26Z" transform="translate(-38.09 -206.56)"/><path class="cls-2" d="M139.55,264.55a14.07,14.07,0,0,1,2.85.25l-.64,7.92a9.39,9.39,0,0,0-2.49-.28,8.91,8.91,0,0,0-6.29,2.08,7.48,7.48,0,0,0-2.26,5.81v15.74h-8.44V265.13h6.39l1.25,5.21h.41a11.71,11.71,0,0,1,3.89-4.2A9.59,9.59,0,0,1,139.55,264.55Z" transform="translate(-38.09 -206.56)"/><path class="cls-2" d="M162,296.63q-7.47,0-11.68-4.13t-4.21-11.67q0-7.79,3.89-12t10.75-4.25q6.57,0,10.21,3.74t3.66,10.32v4.1H154.69a8.11,8.11,0,0,0,2.13,5.62,7.51,7.51,0,0,0,5.59,2,23,23,0,0,0,5.28-.59,25.68,25.68,0,0,0,5.2-1.85v6.53a19.62,19.62,0,0,1-4.73,1.65A29.77,29.77,0,0,1,162,296.63Zm-1.19-26.07a5.38,5.38,0,0,0-4.21,1.7,7.92,7.92,0,0,0-1.74,4.83h11.84a7,7,0,0,0-1.63-4.83A5.54,5.54,0,0,0,160.83,270.56Z" transform="translate(-38.09 -206.56)"/><path class="cls-2" d="M195.5,296.63q-7.47,0-11.67-4.13t-4.21-11.67q0-7.79,3.89-12t10.75-4.25q6.56,0,10.21,3.74t3.65,10.32v4.1h-20a8.11,8.11,0,0,0,2.13,5.62,7.52,7.52,0,0,0,5.59,2,23,23,0,0,0,5.29-.59,25.9,25.9,0,0,0,5.2-1.85v6.53a19.78,19.78,0,0,1-4.73,1.65A29.87,29.87,0,0,1,195.5,296.63Zm-1.19-26.07a5.35,5.35,0,0,0-4.2,1.7,7.86,7.86,0,0,0-1.75,4.83h11.85a7.06,7.06,0,0,0-1.63-4.83A5.57,5.57,0,0,0,194.31,270.56Z" transform="translate(-38.09 -206.56)"/><path class="cls-2" d="M223.1,279.25l3.68-4.71,8.66-9.41H245l-12.29,13.43,13,17.51H236l-8.91-12.53-3.62,2.9v9.63H215V253h8.44v19.21l-.45,7Z" transform="translate(-38.09 -206.56)"/><path class="cls-2" d="M274.68,284.84a10.44,10.44,0,0,1-3.94,8.63q-3.94,3.16-11,3.16a25.67,25.67,0,0,1-11.45-2.44v-8a47.3,47.3,0,0,0,6.93,2.58,20.84,20.84,0,0,0,5.19.74,7.38,7.38,0,0,0,4.33-1.08,3.71,3.71,0,0,0,1.51-3.21,3.47,3.47,0,0,0-.67-2.11,7.3,7.3,0,0,0-2-1.79,51.51,51.51,0,0,0-5.24-2.74,24.65,24.65,0,0,1-5.56-3.35,12.55,12.55,0,0,1-3-3.73,10.75,10.75,0,0,1-1.1-5,10.47,10.47,0,0,1,3.64-8.45q3.63-3.06,10.06-3.07a23.7,23.7,0,0,1,6,.75,42.69,42.69,0,0,1,6,2.1l-2.77,6.67a40.79,40.79,0,0,0-5.36-1.85,17.26,17.26,0,0,0-4.16-.53,5.52,5.52,0,0,0-3.74,1.14,3.75,3.75,0,0,0-1.3,3,3.66,3.66,0,0,0,.53,2,5.91,5.91,0,0,0,1.67,1.63,52.21,52.21,0,0,0,5.44,2.84c3.78,1.8,6.38,3.62,7.78,5.43A10.65,10.65,0,0,1,274.68,284.84Z" transform="translate(-38.09 -206.56)"/><path class="cls-2" d="M294.38,289.9a18.2,18.2,0,0,0,5.32-1v6.29a19,19,0,0,1-7.75,1.41c-3.38,0-5.84-.86-7.38-2.56s-2.31-4.27-2.31-7.68V271.47h-4V267.9l4.65-2.82,2.44-6.53h5.39v6.58h8.66v6.34H290.7v14.92a3.29,3.29,0,0,0,1,2.65A4,4,0,0,0,294.38,289.9Z" transform="translate(-38.09 -206.56)"/><path class="cls-2" d="M323.22,264.55a14.07,14.07,0,0,1,2.85.25l-.64,7.92a9.39,9.39,0,0,0-2.49-.28,8.91,8.91,0,0,0-6.29,2.08,7.48,7.48,0,0,0-2.26,5.81v15.74H306V265.13h6.39l1.25,5.21H314a11.6,11.6,0,0,1,3.88-4.2A9.62,9.62,0,0,1,323.22,264.55Z" transform="translate(-38.09 -206.56)"/><path class="cls-2" d="M345.69,296.63q-7.47,0-11.68-4.13t-4.2-11.67q0-7.79,3.88-12t10.76-4.25q6.56,0,10.21,3.74t3.65,10.32v4.1H338.36a8.11,8.11,0,0,0,2.13,5.62,7.52,7.52,0,0,0,5.59,2,23,23,0,0,0,5.28-.59,26,26,0,0,0,5.21-1.85v6.53a19.85,19.85,0,0,1-4.74,1.65A29.7,29.7,0,0,1,345.69,296.63Zm-1.19-26.07a5.38,5.38,0,0,0-4.21,1.7,7.92,7.92,0,0,0-1.74,4.83H350.4a7.06,7.06,0,0,0-1.64-4.83A5.54,5.54,0,0,0,344.5,270.56Z" transform="translate(-38.09 -206.56)"/><path class="cls-2" d="M379.18,296.63q-7.47,0-11.68-4.13t-4.21-11.67q0-7.79,3.89-12t10.75-4.25q6.57,0,10.21,3.74t3.66,10.32v4.1h-20a8.17,8.17,0,0,0,2.14,5.62,7.5,7.5,0,0,0,5.58,2,23,23,0,0,0,5.29-.59,25.68,25.68,0,0,0,5.2-1.85v6.53a19.62,19.62,0,0,1-4.73,1.65A29.83,29.83,0,0,1,379.18,296.63ZM378,270.56a5.38,5.38,0,0,0-4.21,1.7,7.92,7.92,0,0,0-1.74,4.83h11.84a7,7,0,0,0-1.63-4.83A5.54,5.54,0,0,0,378,270.56Z" transform="translate(-38.09 -206.56)"/><path class="cls-2" d="M411.69,289.9a18.2,18.2,0,0,0,5.32-1v6.29a19,19,0,0,1-7.75,1.41c-3.38,0-5.84-.86-7.38-2.56s-2.31-4.27-2.31-7.68V271.47h-4V267.9l4.65-2.82,2.44-6.53H408v6.58h8.67v6.34H408v14.92a3.29,3.29,0,0,0,1,2.65A4,4,0,0,0,411.69,289.9Z" transform="translate(-38.09 -206.56)"/><path class="cls-2" d="M444.85,286.89a8.51,8.51,0,0,1-3.31,7.25q-3.3,2.49-9.89,2.49a30.64,30.64,0,0,1-5.76-.46,21.34,21.34,0,0,1-4.45-1.34v-7a29.05,29.05,0,0,0,5.3,1.86,21.32,21.32,0,0,0,5.18.75q4.6,0,4.6-2.66a2.2,2.2,0,0,0-.61-1.62,9,9,0,0,0-2.1-1.41c-1-.53-2.33-1.14-4-1.84a24.92,24.92,0,0,1-5.24-2.77,7.79,7.79,0,0,1-2.44-2.92,9.6,9.6,0,0,1-.76-4.05,7.35,7.35,0,0,1,3.2-6.38q3.19-2.26,9.06-2.26A25.66,25.66,0,0,1,444.52,267L442,273.08c-1.55-.67-3-1.21-4.34-1.64a13.84,13.84,0,0,0-4.13-.63c-2.49,0-3.73.67-3.73,2a2.37,2.37,0,0,0,1.2,2,32.05,32.05,0,0,0,5.27,2.47,24.2,24.2,0,0,1,5.32,2.74,8.1,8.1,0,0,1,2.49,2.93A9.08,9.08,0,0,1,444.85,286.89Z" transform="translate(-38.09 -206.56)"/><path class="cls-3" d="M105.2,349.87H81.9V309.41h23.3v7H90.48v8.89h13.7v7H90.48v10.43H105.2Z" transform="translate(-38.09 -206.56)"/><path class="cls-3" d="M108.77,349.87l13.09-29.25-1-2.54a8.73,8.73,0,0,0-2.27-3.52,6.2,6.2,0,0,0-3.91-1,11.6,11.6,0,0,0-2.82.36v-7a22,22,0,0,1,4.59-.47,13.82,13.82,0,0,1,5.44,1,9.74,9.74,0,0,1,3.85,3,21.92,21.92,0,0,1,3,6l7.78,21.36a15.86,15.86,0,0,0,2.07,4.24,3.16,3.16,0,0,0,2.58,1.35,7.33,7.33,0,0,0,1.91-.27v6.53a8.28,8.28,0,0,1-2.22.58,18.26,18.26,0,0,1-2.65.25,7.89,7.89,0,0,1-5-1.5,9.89,9.89,0,0,1-3.08-4.78q-3.15-8.94-3.75-10.78c-.39-1.23-.71-2.32-1-3.28h-.17q-1.27,4.26-2.1,6.36l-5.7,13.42Z" transform="translate(-38.09 -206.56)"/><path class="cls-3" d="M143.64,349.87l13.09-29.25-1-2.54a8.53,8.53,0,0,0-2.27-3.52,6.15,6.15,0,0,0-3.9-1,11.6,11.6,0,0,0-2.82.36v-7a22,22,0,0,1,4.59-.47,13.85,13.85,0,0,1,5.44,1,9.74,9.74,0,0,1,3.85,3,21.92,21.92,0,0,1,3,6l7.78,21.36A15.86,15.86,0,0,0,173.5,342a3.16,3.16,0,0,0,2.58,1.35,7.33,7.33,0,0,0,1.91-.27v6.53a8.28,8.28,0,0,1-2.22.58,18.26,18.26,0,0,1-2.65.25,7.94,7.94,0,0,1-5-1.5,10,10,0,0,1-3.07-4.78q-3.15-8.94-3.75-10.78c-.39-1.23-.71-2.32-.95-3.28h-.17q-1.27,4.26-2.1,6.36l-5.7,13.42Z" transform="translate(-38.09 -206.56)"/><path class="cls-3" d="M211.28,363.49h-8.44V331.8a8.71,8.71,0,0,0-1.19-5,4.33,4.33,0,0,0-3.79-1.67c-2.37,0-4.07.78-5.12,2.36s-1.58,4.19-1.58,7.85v14.55h-8.44V318.93h6.45l1.13,4h.47a9,9,0,0,1,3.89-3.39,13.32,13.32,0,0,1,5.63-1.15c3.6,0,6.33,1,8.19,2.92s2.8,4.76,2.8,8.43Z" transform="translate(-38.09 -206.56)"/><path class="cls-3" d="M215.71,318.93h8.66l6,17.16,1.91,6.31h.22a27.33,27.33,0,0,0,4.6-9.71,56.35,56.35,0,0,0,1.41-13.76h8.52a53,53,0,0,1-1.22,12.22,36,36,0,0,1-3.86,9.72,43.87,43.87,0,0,1-7.07,9h-7.58Z" transform="translate(-38.09 -206.56)"/><path class="cls-3" d="M262.14,318.93v21.26a3.29,3.29,0,0,0,1,2.65,4,4,0,0,0,2.67.86,18.26,18.26,0,0,0,5.35-1V349a17.13,17.13,0,0,1-7.28,1.41c-3.51,0-6.08-.86-7.72-2.56s-2.47-4.27-2.47-7.68V318.93Z" transform="translate(-38.09 -206.56)"/><path class="cls-3" d="M285.17,333.77l3.9-4.71,8.69-10.13h9L294.58,333.1l12.92,16.77h-9.63l-8.69-11.79-4,2.5v9.29h-8.44V318.93h8.44V327l-.08,4.46-.08,2.27Z" transform="translate(-38.09 -206.56)"/><path class="cls-3" d="M340.05,334.35q0,7.56-4,11.82c-2.66,2.84-6.35,4.26-11.1,4.26a15.54,15.54,0,0,1-7.86-1.95,13,13,0,0,1-5.23-5.61,18.89,18.89,0,0,1-1.82-8.52q0-7.59,3.95-11.79t11.13-4.21a15.63,15.63,0,0,1,7.86,1.94,13,13,0,0,1,5.23,5.56A18.64,18.64,0,0,1,340.05,334.35Zm-21.4,0c0,3.06.51,5.38,1.51,6.94a5.41,5.41,0,0,0,4.91,2.36,5.31,5.31,0,0,0,4.86-2.34q1.49-2.34,1.48-7t-1.49-6.89a6.36,6.36,0,0,0-9.77,0Q318.65,329.74,318.65,334.35Z" transform="translate(-38.09 -206.56)"/><path class="cls-3" d="M355.46,318.93v21.26a3.29,3.29,0,0,0,1,2.65,3.93,3.93,0,0,0,2.67.86,18.15,18.15,0,0,0,5.34-1V349a17.06,17.06,0,0,1-7.28,1.41c-3.5,0-6.08-.86-7.72-2.56S347,343.6,347,340.19V318.93Zm-6.56-4.26c.33-1,.74-2.51,1.23-4.54a51.19,51.19,0,0,0,1-5.36H359v.66a75.83,75.83,0,0,1-5.17,10.1H348.9Z" transform="translate(-38.09 -206.56)"/><path class="cls-3" d="M382,345l12.26-35.7h9.69L416.09,345v4.87H382Zm17.08-28.67c0,.27-.15.81-.35,1.62s-.47,1.84-.84,3.11-2.75,8.51-7.14,21.72h16.66l-7-21.25-.3-1.08C399.44,318,399.08,316.65,399.05,316.28Z" transform="translate(-38.09 -206.56)"/><path class="cls-3" d="M450.19,334.4q0,7.56-3.39,11.79a11.38,11.38,0,0,1-9.42,4.24,14.72,14.72,0,0,1-7.78-2.13h-.5c.3,3.17.44,5.64.44,7.41v7.78h-8.49V334.35q0-7.61,3.83-11.8t10.89-4.2a14.48,14.48,0,0,1,7.56,1.95,13.1,13.1,0,0,1,5.06,5.61A19,19,0,0,1,450.19,334.4Zm-14.58-9.24a5.21,5.21,0,0,0-4.6,2.12q-1.47,2.12-1.47,6.68v7.31a7.7,7.7,0,0,0,2.8,1.78,9.27,9.27,0,0,0,3.27.6,4.93,4.93,0,0,0,4.52-2.18q1.37-2.16,1.37-7.07c0-3.24-.45-5.6-1.34-7A4.91,4.91,0,0,0,435.61,325.16Z" transform="translate(-38.09 -206.56)"/><path class="cls-3" d="M485.28,334.35q0,7.56-4,11.82t-11.09,4.26a15.54,15.54,0,0,1-7.86-1.95,13,13,0,0,1-5.23-5.61,18.76,18.76,0,0,1-1.83-8.52q0-7.59,4-11.79t11.12-4.21a15.63,15.63,0,0,1,7.86,1.94,12.9,12.9,0,0,1,5.23,5.56A18.64,18.64,0,0,1,485.28,334.35Zm-21.39,0c0,3.06.5,5.38,1.51,6.94a5.38,5.38,0,0,0,4.91,2.36,5.32,5.32,0,0,0,4.86-2.34c1-1.56,1.48-3.88,1.48-7s-.5-5.36-1.5-6.89a6.36,6.36,0,0,0-9.77,0Q463.9,329.74,463.89,334.35Zm3.71-19.68c.33-1,.74-2.51,1.23-4.54a53.92,53.92,0,0,0,1-5.36h7.83v.66a75.91,75.91,0,0,1-5.18,10.1H467.6Z" transform="translate(-38.09 -206.56)"/><path class="cls-3" d="M500.69,337a8.54,8.54,0,0,0,1.22,5,4.42,4.42,0,0,0,3.82,1.67,5.62,5.62,0,0,0,5.07-2.39c1.05-1.6,1.57-4.2,1.57-7.82V318.93h8.44v30.94h-6.39l-1.19-4.15h-.41a9.18,9.18,0,0,1-2.83,3.53,6.84,6.84,0,0,1-4.09,1.18,7.79,7.79,0,0,1-3.16-.64,5.58,5.58,0,0,1-2.32-1.85l.14,2.35.13,4.34v8.86h-8.44V318.93h8.44Z" transform="translate(-38.09 -206.56)"/><path class="cls-3" d="M557.79,334.35q0,7.56-4,11.82t-11.1,4.26a15.54,15.54,0,0,1-7.86-1.95,13,13,0,0,1-5.23-5.61,18.89,18.89,0,0,1-1.82-8.52q0-7.59,4-11.79t11.12-4.21a15.63,15.63,0,0,1,7.86,1.94,13,13,0,0,1,5.23,5.56A18.64,18.64,0,0,1,557.79,334.35Zm-21.4,0c0,3.06.51,5.38,1.51,6.94a5.41,5.41,0,0,0,4.92,2.36,5.3,5.3,0,0,0,4.85-2.34q1.49-2.34,1.48-7t-1.49-6.89a6.36,6.36,0,0,0-9.77,0Q536.39,329.74,536.39,334.35Z" transform="translate(-38.09 -206.56)"/><path class="cls-3" d="M573.2,318.93v21.26a3.29,3.29,0,0,0,1,2.65,4,4,0,0,0,2.67.86,18.15,18.15,0,0,0,5.34-1V349a17,17,0,0,1-7.27,1.41c-3.51,0-6.08-.86-7.73-2.56s-2.46-4.27-2.46-7.68V318.93Z" transform="translate(-38.09 -206.56)"/></svg>